<svg xmlns="http://www.w3.org/2000/svg" version="1.2" viewBox="0 0 24 24"><rect x="12" y="4" width="1" height="1" shape-rendering="crispEdges" fill="#e22626ff"></rect><rect x="11" y="5" width="1" height="1" shape-rendering="crispEdges" fill="#e22626ff"></rect><rect x="12" y="5" width="1" height="1" shape-rendering="crispEdges" fill="#e22626ff"></rect><rect x="10" y="6" width="1" height="1" shape-rendering="crispEdges" fill="#e22626ff"></rect><rect x="11" y="6" width="1" height="1" shape-rendering="crispEdges" fill="#e22626ff"></rect><rect x="12" y="6" width="1" height="1" shape-rendering="crispEdges" fill="#e22626ff"></rect><rect x="9" y="7" width="1" height="1" shape-rendering="crispEdges" fill="#000000ff"></rect><rect x="10" y="7" width="1" height="1" shape-rendering="crispEdges" fill="#000000ff"></rect><rect x="11" y="7" width="1" height="1" shape-rendering="crispEdges" fill="#e22626ff"></rect><rect x="12" y="7" width="1" height="1" shape-rendering="crispEdges" fill="#e22626ff"></rect><rect x="13" y="7" width="1" height="1" shape-rendering="crispEdges" fill="#000000ff"></rect><rect x="14" y="7" width="1" height="1" shape-rendering="crispEdges" fill="#000000ff"></rect><rect x="8" y="8" width="1" height="1" shape-rendering="crispEdges" fill="#000000ff"></rect><rect x="9" y="8" width="1" height="1" shape-rendering="crispEdges" fill="#ead9d9ff"></rect><rect x="10" y="8" width="1" height="1" shape-rendering="crispEdges" fill="#ead9d9ff"></rect><rect x="11" y="8" width="1" height="1" shape-rendering="crispEdges" fill="#ead9d9ff"></rect><rect x="12" y="8" width="1" height="1" shape-rendering="crispEdges" fill="#ead9d9ff"></rect><rect x="13" y="8" width="1" height="1" shape-rendering="crispEdges" fill="#ead9d9ff"></rect><rect x="14" y="8" width="1" height="1" shape-rendering="crispEdges" fill="#ead9d9ff"></rect><rect x="15" y="8" width="1" height="1" shape-rendering="crispEdges" fill="#000000ff"></rect><rect x="7" y="9" width="1" height="1" shape-rendering="crispEdges" fill="#000000ff"></rect><rect x="8" y="9" width="1" height="1" shape-rendering="crispEdges" fill="#ead9d9ff"></rect><rect x="9" y="9" width="1" height="1" shape-rendering="crispEdges" fill="#ffffffff"></rect><rect x="10" y="9" width="1" height="1" shape-rendering="crispEdges" fill="#ead9d9ff"></rect><rect x="11" y="9" width="1" height="1" shape-rendering="crispEdges" fill="#ead9d9ff"></rect><rect x="12" y="9" width="1" height="1" shape-rendering="crispEdges" fill="#ead9d9ff"></rect><rect x="13" y="9" width="1" height="1" shape-rendering="crispEdges" fill="#ead9d9ff"></rect><rect x="14" y="9" width="1" height="1" shape-rendering="crispEdges" fill="#ead9d9ff"></rect><rect x="15" y="9" width="1" height="1" shape-rendering="crispEdges" fill="#ead9d9ff"></rect><rect x="16" y="9" width="1" height="1" shape-rendering="crispEdges" fill="#000000ff"></rect><rect x="7" y="10" width="1" height="1" shape-rendering="crispEdges" fill="#000000ff"></rect><rect x="8" y="10" width="1" height="1" shape-rendering="crispEdges" fill="#ead9d9ff"></rect><rect x="9" y="10" width="1" height="1" shape-rendering="crispEdges" fill="#ead9d9ff"></rect><rect x="10" y="10" width="1" height="1" shape-rendering="crispEdges" fill="#ead9d9ff"></rect><rect x="11" y="10" width="1" height="1" shape-rendering="crispEdges" fill="#ead9d9ff"></rect><rect x="12" y="10" width="1" height="1" shape-rendering="crispEdges" fill="#ead9d9ff"></rect><rect x="13" y="10" width="1" height="1" shape-rendering="crispEdges" fill="#ead9d9ff"></rect><rect x="14" y="10" width="1" height="1" shape-rendering="crispEdges" fill="#ead9d9ff"></rect><rect x="15" y="10" width="1" height="1" shape-rendering="crispEdges" fill="#ead9d9ff"></rect><rect x="16" y="10" width="1" height="1" shape-rendering="crispEdges" fill="#000000ff"></rect><rect x="7" y="11" width="1" height="1" shape-rendering="crispEdges" fill="#000000ff"></rect><rect x="8" y="11" width="1" height="1" shape-rendering="crispEdges" fill="#ead9d9ff"></rect><rect x="9" y="11" width="1" height="1" shape-rendering="crispEdges" fill="#ead9d9ff"></rect><rect x="10" y="11" width="1" height="1" shape-rendering="crispEdges" fill="#ead9d9ff"></rect><rect x="11" y="11" width="1" height="1" shape-rendering="crispEdges" fill="#ead9d9ff"></rect><rect x="12" y="11" width="1" height="1" shape-rendering="crispEdges" fill="#ead9d9ff"></rect><rect x="13" y="11" width="1" height="1" shape-rendering="crispEdges" fill="#ead9d9ff"></rect><rect x="14" y="11" width="1" height="1" shape-rendering="crispEdges" fill="#ead9d9ff"></rect><rect x="15" y="11" width="1" height="1" shape-rendering="crispEdges" fill="#ead9d9ff"></rect><rect x="16" y="11" width="1" height="1" shape-rendering="crispEdges" fill="#000000ff"></rect><rect x="6" y="12" width="1" height="1" shape-rendering="crispEdges" fill="#000000ff"></rect><rect x="7" y="12" width="1" height="1" shape-rendering="crispEdges" fill="#ead9d9ff"></rect><rect x="8" y="12" width="1" height="1" shape-rendering="crispEdges" fill="#ead9d9ff"></rect><rect x="9" y="12" width="1" height="1" shape-rendering="crispEdges" fill="#af38a1ff"></rect><rect x="10" y="12" width="1" height="1" shape-rendering="crispEdges" fill="#af38a1ff"></rect><rect x="11" y="12" width="1" height="1" shape-rendering="crispEdges" fill="#ead9d9ff"></rect><rect x="12" y="12" width="1" height="1" shape-rendering="crispEdges" fill="#ead9d9ff"></rect><rect x="13" y="12" width="1" height="1" shape-rendering="crispEdges" fill="#ead9d9ff"></rect><rect x="14" y="12" width="1" height="1" shape-rendering="crispEdges" fill="#af38a1ff"></rect><rect x="15" y="12" width="1" height="1" shape-rendering="crispEdges" fill="#af38a1ff"></rect><rect x="16" y="12" width="1" height="1" shape-rendering="crispEdges" fill="#000000ff"></rect><rect x="6" y="13" width="1" height="1" shape-rendering="crispEdges" fill="#000000ff"></rect><rect x="7" y="13" width="1" height="1" shape-rendering="crispEdges" fill="#ead9d9ff"></rect><rect x="8" y="13" width="1" height="1" shape-rendering="crispEdges" fill="#ead9d9ff"></rect><rect x="9" y="13" width="1" height="1" shape-rendering="crispEdges" fill="#000000ff"></rect><rect x="10" y="13" width="1" height="1" shape-rendering="crispEdges" fill="#bd47b0ff"></rect><rect x="11" y="13" width="1" height="1" shape-rendering="crispEdges" fill="#ead9d9ff"></rect><rect x="12" y="13" width="1" height="1" shape-rendering="crispEdges" fill="#ead9d9ff"></rect><rect x="13" y="13" width="1" height="1" shape-rendering="crispEdges" fill="#ead9d9ff"></rect><rect x="14" y="13" width="1" height="1" shape-rendering="crispEdges" fill="#000000ff"></rect><rect x="15" y="13" width="1" height="1" shape-rendering="crispEdges" fill="#bd47b0ff"></rect><rect x="16" y="13" width="1" height="1" shape-rendering="crispEdges" fill="#000000ff"></rect><rect x="5" y="14" width="1" height="1" shape-rendering="crispEdges" fill="#000000ff"></rect><rect x="6" y="14" width="1" height="1" shape-rendering="crispEdges" fill="#ffd926ff"></rect><rect x="7" y="14" width="1" height="1" shape-rendering="crispEdges" fill="#000000ff"></rect><rect x="8" y="14" width="1" height="1" shape-rendering="crispEdges" fill="#42dcffff"></rect><rect x="9" y="14" width="1" height="1" shape-rendering="crispEdges" fill="#ead9d9ff"></rect><rect x="10" y="14" width="1" height="1" shape-rendering="crispEdges" fill="#ead9d9ff"></rect><rect x="11" y="14" width="1" height="1" shape-rendering="crispEdges" fill="#ead9d9ff"></rect><rect x="12" y="14" width="1" height="1" shape-rendering="crispEdges" fill="#ead9d9ff"></rect><rect x="13" y="14" width="1" height="1" shape-rendering="crispEdges" fill="#ead9d9ff"></rect><rect x="14" y="14" width="1" height="1" shape-rendering="crispEdges" fill="#ead9d9ff"></rect><rect x="15" y="14" width="1" height="1" shape-rendering="crispEdges" fill="#ead9d9ff"></rect><rect x="16" y="14" width="1" height="1" shape-rendering="crispEdges" fill="#000000ff"></rect><rect x="6" y="15" width="1" height="1" shape-rendering="crispEdges" fill="#000000ff"></rect><rect x="7" y="15" width="1" height="1" shape-rendering="crispEdges" fill="#000000ff"></rect><rect x="8" y="15" width="1" height="1" shape-rendering="crispEdges" fill="#00bcd4ff"></rect><rect x="9" y="15" width="1" height="1" shape-rendering="crispEdges" fill="#ead9d9ff"></rect><rect x="10" y="15" width="1" height="1" shape-rendering="crispEdges" fill="#ead9d9ff"></rect><rect x="11" y="15" width="1" height="1" shape-rendering="crispEdges" fill="#ead9d9ff"></rect><rect x="12" y="15" width="1" height="1" shape-rendering="crispEdges" fill="#ead9d9ff"></rect><rect x="13" y="15" width="1" height="1" shape-rendering="crispEdges" fill="#ead9d9ff"></rect><rect x="14" y="15" width="1" height="1" shape-rendering="crispEdges" fill="#ead9d9ff"></rect><rect x="15" y="15" width="1" height="1" shape-rendering="crispEdges" fill="#ead9d9ff"></rect><rect x="16" y="15" width="1" height="1" shape-rendering="crispEdges" fill="#000000ff"></rect><rect x="7" y="16" width="1" height="1" shape-rendering="crispEdges" fill="#000000ff"></rect><rect x="8" y="16" width="1" height="1" shape-rendering="crispEdges" fill="#ead9d9ff"></rect><rect x="9" y="16" width="1" height="1" shape-rendering="crispEdges" fill="#ead9d9ff"></rect><rect x="10" y="16" width="1" height="1" shape-rendering="crispEdges" fill="#ead9d9ff"></rect><rect x="11" y="16" width="1" height="1" shape-rendering="crispEdges" fill="#ead9d9ff"></rect><rect x="12" y="16" width="1" height="1" shape-rendering="crispEdges" fill="#000000ff"></rect><rect x="13" y="16" width="1" height="1" shape-rendering="crispEdges" fill="#ead9d9ff"></rect><rect x="14" y="16" width="1" height="1" shape-rendering="crispEdges" fill="#ead9d9ff"></rect><rect x="15" y="16" width="1" height="1" shape-rendering="crispEdges" fill="#ead9d9ff"></rect><rect x="16" y="16" width="1" height="1" shape-rendering="crispEdges" fill="#000000ff"></rect><rect x="7" y="17" width="1" height="1" shape-rendering="crispEdges" fill="#000000ff"></rect><rect x="8" y="17" width="1" height="1" shape-rendering="crispEdges" fill="#ead9d9ff"></rect><rect x="9" y="17" width="1" height="1" shape-rendering="crispEdges" fill="#ead9d9ff"></rect><rect x="10" y="17" width="1" height="1" shape-rendering="crispEdges" fill="#ead9d9ff"></rect><rect x="11" y="17" width="1" height="1" shape-rendering="crispEdges" fill="#ead9d9ff"></rect><rect x="12" y="17" width="1" height="1" shape-rendering="crispEdges" fill="#ead9d9ff"></rect><rect x="13" y="17" width="1" height="1" shape-rendering="crispEdges" fill="#ead9d9ff"></rect><rect x="14" y="17" width="1" height="1" shape-rendering="crispEdges" fill="#ead9d9ff"></rect><rect x="15" y="17" width="1" height="1" shape-rendering="crispEdges" fill="#ead9d9ff"></rect><rect x="16" y="17" width="1" height="1" shape-rendering="crispEdges" fill="#000000ff"></rect><rect x="7" y="18" width="1" height="1" shape-rendering="crispEdges" fill="#000000ff"></rect><rect x="8" y="18" width="1" height="1" shape-rendering="crispEdges" fill="#ead9d9ff"></rect><rect x="9" y="18" width="1" height="1" shape-rendering="crispEdges" fill="#ead9d9ff"></rect><rect x="10" y="18" width="1" height="1" shape-rendering="crispEdges" fill="#ead9d9ff"></rect><rect x="11" y="18" width="1" height="1" shape-rendering="crispEdges" fill="#711010ff"></rect><rect x="12" y="18" width="1" height="1" shape-rendering="crispEdges" fill="#711010ff"></rect><rect x="13" y="18" width="1" height="1" shape-rendering="crispEdges" fill="#711010ff"></rect><rect x="14" y="18" width="1" height="1" shape-rendering="crispEdges" fill="#ead9d9ff"></rect><rect x="15" y="18" width="1" height="1" shape-rendering="crispEdges" fill="#ead9d9ff"></rect><rect x="16" y="18" width="1" height="1" shape-rendering="crispEdges" fill="#000000ff"></rect><rect x="8" y="19" width="1" height="1" shape-rendering="crispEdges" fill="#000000ff"></rect><rect x="9" y="19" width="1" height="1" shape-rendering="crispEdges" fill="#ead9d9ff"></rect><rect x="10" y="19" width="1" height="1" shape-rendering="crispEdges" fill="#ead9d9ff"></rect><rect x="11" y="19" width="1" height="1" shape-rendering="crispEdges" fill="#ead9d9ff"></rect><rect x="12" y="19" width="1" height="1" shape-rendering="crispEdges" fill="#ead9d9ff"></rect><rect x="13" y="19" width="1" height="1" shape-rendering="crispEdges" fill="#ead9d9ff"></rect><rect x="14" y="19" width="1" height="1" shape-rendering="crispEdges" fill="#ead9d9ff"></rect><rect x="15" y="19" width="1" height="1" shape-rendering="crispEdges" fill="#000000ff"></rect><rect x="8" y="20" width="1" height="1" shape-rendering="crispEdges" fill="#000000ff"></rect><rect x="9" y="20" width="1" height="1" shape-rendering="crispEdges" fill="#ead9d9ff"></rect><rect x="10" y="20" width="1" height="1" shape-rendering="crispEdges" fill="#000000ff"></rect><rect x="11" y="20" width="1" height="1" shape-rendering="crispEdges" fill="#ead9d9ff"></rect><rect x="12" y="20" width="1" height="1" shape-rendering="crispEdges" fill="#ead9d9ff"></rect><rect x="13" y="20" width="1" height="1" shape-rendering="crispEdges" fill="#ead9d9ff"></rect><rect x="14" y="20" width="1" height="1" shape-rendering="crispEdges" fill="#000000ff"></rect><rect x="8" y="21" width="1" height="1" shape-rendering="crispEdges" fill="#000000ff"></rect><rect x="9" y="21" width="1" height="1" shape-rendering="crispEdges" fill="#ead9d9ff"></rect><rect x="10" y="21" width="1" height="1" shape-rendering="crispEdges" fill="#ead9d9ff"></rect><rect x="11" y="21" width="1" height="1" shape-rendering="crispEdges" fill="#000000ff"></rect><rect x="12" y="21" width="1" height="1" shape-rendering="crispEdges" fill="#000000ff"></rect><rect x="13" y="21" width="1" height="1" shape-rendering="crispEdges" fill="#000000ff"></rect><rect x="8" y="22" width="1" height="1" shape-rendering="crispEdges" fill="#000000ff"></rect><rect x="9" y="22" width="1" height="1" shape-rendering="crispEdges" fill="#ead9d9ff"></rect><rect x="10" y="22" width="1" height="1" shape-rendering="crispEdges" fill="#ead9d9ff"></rect><rect x="11" y="22" width="1" height="1" shape-rendering="crispEdges" fill="#ead9d9ff"></rect><rect x="12" y="22" width="1" height="1" shape-rendering="crispEdges" fill="#000000ff"></rect><rect x="8" y="23" width="1" height="1" shape-rendering="crispEdges" fill="#000000ff"></rect><rect x="9" y="23" width="1" height="1" shape-rendering="crispEdges" fill="#ead9d9ff"></rect><rect x="10" y="23" width="1" height="1" shape-rendering="crispEdges" fill="#ead9d9ff"></rect><rect x="11" y="23" width="1" height="1" shape-rendering="crispEdges" fill="#ead9d9ff"></rect><rect x="12" y="23" width="1" height="1" shape-rendering="crispEdges" fill="#000000ff"></rect></svg>
